<mxfile host="app.diagrams.net" modified="2021-11-15T17:00:05.855Z" agent="5.0 (X11)" etag="E-luV0ygkWyPrsMZw0X8" version="15.7.3" type="github">
  <diagram id="smE5fnJAyVyCLhYMQo8Z" name="AppSystem">
    <mxGraphModel dx="1422" dy="793" grid="1" gridSize="10" guides="1" tooltips="1" connect="1" arrows="1" fold="1" page="1" pageScale="1" pageWidth="827" pageHeight="1169" math="0" shadow="0">
      <root>
        <mxCell id="0" />
        <mxCell id="1" parent="0" />
        <mxCell id="Z5xYq3RRcm3EjHd7aSkA-1" value="Application System" style="swimlane;startSize=0;verticalAlign=top;" vertex="1" parent="1">
          <mxGeometry x="120" y="120" width="520" height="440" as="geometry" />
        </mxCell>
        <mxCell id="Z5xYq3RRcm3EjHd7aSkA-31" value="&amp;lt;&amp;lt;include&amp;gt;&amp;gt;" style="edgeStyle=none;rounded=0;orthogonalLoop=1;jettySize=auto;html=1;entryX=0;entryY=0.5;entryDx=0;entryDy=0;dashed=1;" edge="1" parent="Z5xYq3RRcm3EjHd7aSkA-1" source="Z5xYq3RRcm3EjHd7aSkA-7" target="Z5xYq3RRcm3EjHd7aSkA-28">
          <mxGeometry relative="1" as="geometry" />
        </mxCell>
        <mxCell id="Z5xYq3RRcm3EjHd7aSkA-7" value="Login" style="ellipse;whiteSpace=wrap;html=1;" vertex="1" parent="Z5xYq3RRcm3EjHd7aSkA-1">
          <mxGeometry x="40" y="120" width="80" height="40" as="geometry" />
        </mxCell>
        <mxCell id="Z5xYq3RRcm3EjHd7aSkA-8" value="Logout" style="ellipse;whiteSpace=wrap;html=1;" vertex="1" parent="Z5xYq3RRcm3EjHd7aSkA-1">
          <mxGeometry x="40" y="40" width="80" height="40" as="geometry" />
        </mxCell>
        <mxCell id="Z5xYq3RRcm3EjHd7aSkA-55" value="&amp;lt;&amp;lt;include&amp;gt;&amp;gt;" style="edgeStyle=none;rounded=0;orthogonalLoop=1;jettySize=auto;html=1;entryX=0;entryY=0;entryDx=0;entryDy=0;dashed=1;" edge="1" parent="Z5xYq3RRcm3EjHd7aSkA-1" source="Z5xYq3RRcm3EjHd7aSkA-9" target="Z5xYq3RRcm3EjHd7aSkA-23">
          <mxGeometry relative="1" as="geometry" />
        </mxCell>
        <mxCell id="Z5xYq3RRcm3EjHd7aSkA-9" value="Regist Operator" style="ellipse;whiteSpace=wrap;html=1;" vertex="1" parent="Z5xYq3RRcm3EjHd7aSkA-1">
          <mxGeometry x="40" y="200" width="80" height="40" as="geometry" />
        </mxCell>
        <mxCell id="Z5xYq3RRcm3EjHd7aSkA-26" value="&amp;lt;&amp;lt;include&amp;gt;&amp;gt;" style="edgeStyle=none;rounded=0;orthogonalLoop=1;jettySize=auto;html=1;entryX=0;entryY=0.5;entryDx=0;entryDy=0;exitX=1;exitY=0.5;exitDx=0;exitDy=0;dashed=1;" edge="1" parent="Z5xYq3RRcm3EjHd7aSkA-1" source="Z5xYq3RRcm3EjHd7aSkA-17" target="Z5xYq3RRcm3EjHd7aSkA-23">
          <mxGeometry relative="1" as="geometry" />
        </mxCell>
        <mxCell id="Z5xYq3RRcm3EjHd7aSkA-17" value="&lt;div&gt;Modify Post&lt;br&gt;&lt;/div&gt;" style="ellipse;whiteSpace=wrap;html=1;" vertex="1" parent="Z5xYq3RRcm3EjHd7aSkA-1">
          <mxGeometry x="40" y="280" width="80" height="40" as="geometry" />
        </mxCell>
        <mxCell id="Z5xYq3RRcm3EjHd7aSkA-22" value="&amp;lt;&amp;lt;include&amp;gt;&amp;gt;" style="edgeStyle=none;rounded=0;orthogonalLoop=1;jettySize=auto;html=1;entryX=0;entryY=0.5;entryDx=0;entryDy=0;dashed=1;" edge="1" parent="Z5xYq3RRcm3EjHd7aSkA-1" source="Z5xYq3RRcm3EjHd7aSkA-18" target="Z5xYq3RRcm3EjHd7aSkA-20">
          <mxGeometry relative="1" as="geometry">
            <Array as="points">
              <mxPoint x="180" y="380" />
            </Array>
          </mxGeometry>
        </mxCell>
        <mxCell id="Z5xYq3RRcm3EjHd7aSkA-52" value="&amp;lt;&amp;lt;include&amp;gt;&amp;gt;" style="edgeStyle=none;rounded=0;orthogonalLoop=1;jettySize=auto;html=1;entryX=0;entryY=1;entryDx=0;entryDy=0;dashed=1;exitX=1;exitY=0.5;exitDx=0;exitDy=0;" edge="1" parent="Z5xYq3RRcm3EjHd7aSkA-1" source="Z5xYq3RRcm3EjHd7aSkA-18" target="Z5xYq3RRcm3EjHd7aSkA-23">
          <mxGeometry relative="1" as="geometry" />
        </mxCell>
        <mxCell id="Z5xYq3RRcm3EjHd7aSkA-18" value="&lt;div&gt;Regist Post&lt;br&gt;&lt;/div&gt;" style="ellipse;whiteSpace=wrap;html=1;" vertex="1" parent="Z5xYq3RRcm3EjHd7aSkA-1">
          <mxGeometry x="40" y="360" width="80" height="40" as="geometry" />
        </mxCell>
        <mxCell id="Z5xYq3RRcm3EjHd7aSkA-20" value="Obtain Geolocation" style="ellipse;whiteSpace=wrap;html=1;" vertex="1" parent="Z5xYq3RRcm3EjHd7aSkA-1">
          <mxGeometry x="400" y="360" width="80" height="40" as="geometry" />
        </mxCell>
        <mxCell id="Z5xYq3RRcm3EjHd7aSkA-23" value="Storage Data" style="ellipse;whiteSpace=wrap;html=1;" vertex="1" parent="Z5xYq3RRcm3EjHd7aSkA-1">
          <mxGeometry x="240" y="280" width="80" height="40" as="geometry" />
        </mxCell>
        <mxCell id="Z5xYq3RRcm3EjHd7aSkA-33" value="&amp;lt;&amp;lt;extend&amp;gt;&amp;gt;" style="edgeStyle=none;rounded=0;orthogonalLoop=1;jettySize=auto;html=1;entryX=0.5;entryY=1;entryDx=0;entryDy=0;dashed=1;" edge="1" parent="Z5xYq3RRcm3EjHd7aSkA-1" source="Z5xYq3RRcm3EjHd7aSkA-28" target="Z5xYq3RRcm3EjHd7aSkA-32">
          <mxGeometry relative="1" as="geometry" />
        </mxCell>
        <mxCell id="Z5xYq3RRcm3EjHd7aSkA-28" value="Verify Login" style="ellipse;whiteSpace=wrap;html=1;" vertex="1" parent="Z5xYq3RRcm3EjHd7aSkA-1">
          <mxGeometry x="220" y="120" width="80" height="40" as="geometry" />
        </mxCell>
        <mxCell id="Z5xYq3RRcm3EjHd7aSkA-53" value="&amp;lt;&amp;lt;include&amp;gt;&amp;gt;" style="edgeStyle=none;rounded=0;orthogonalLoop=1;jettySize=auto;html=1;entryX=0;entryY=0;entryDx=0;entryDy=0;dashed=1;" edge="1" parent="Z5xYq3RRcm3EjHd7aSkA-1" source="Z5xYq3RRcm3EjHd7aSkA-32" target="Z5xYq3RRcm3EjHd7aSkA-34">
          <mxGeometry relative="1" as="geometry" />
        </mxCell>
        <mxCell id="Z5xYq3RRcm3EjHd7aSkA-32" value="Show Posts Information" style="ellipse;whiteSpace=wrap;html=1;" vertex="1" parent="Z5xYq3RRcm3EjHd7aSkA-1">
          <mxGeometry x="220" y="40" width="80" height="40" as="geometry" />
        </mxCell>
        <mxCell id="Z5xYq3RRcm3EjHd7aSkA-51" value="&amp;lt;&amp;lt;include&amp;gt;&amp;gt;" style="edgeStyle=none;rounded=0;orthogonalLoop=1;jettySize=auto;html=1;dashed=1;exitX=1;exitY=0.5;exitDx=0;exitDy=0;entryX=0;entryY=0.5;entryDx=0;entryDy=0;" edge="1" parent="Z5xYq3RRcm3EjHd7aSkA-1" source="Z5xYq3RRcm3EjHd7aSkA-28" target="Z5xYq3RRcm3EjHd7aSkA-34">
          <mxGeometry relative="1" as="geometry" />
        </mxCell>
        <mxCell id="Z5xYq3RRcm3EjHd7aSkA-34" value="Receive Data" style="ellipse;whiteSpace=wrap;html=1;" vertex="1" parent="Z5xYq3RRcm3EjHd7aSkA-1">
          <mxGeometry x="400" y="120" width="80" height="40" as="geometry" />
        </mxCell>
        <mxCell id="Z5xYq3RRcm3EjHd7aSkA-21" style="edgeStyle=none;rounded=0;orthogonalLoop=1;jettySize=auto;html=1;exitX=0;exitY=0.3333333333333333;exitDx=0;exitDy=0;exitPerimeter=0;entryX=1;entryY=0.5;entryDx=0;entryDy=0;" edge="1" parent="1" source="Z5xYq3RRcm3EjHd7aSkA-2" target="Z5xYq3RRcm3EjHd7aSkA-20">
          <mxGeometry relative="1" as="geometry" />
        </mxCell>
        <mxCell id="Z5xYq3RRcm3EjHd7aSkA-2" value="Smartphone" style="shape=umlActor;verticalLabelPosition=bottom;verticalAlign=top;html=1;outlineConnect=0;" vertex="1" parent="1">
          <mxGeometry x="680" y="420" width="30" height="60" as="geometry" />
        </mxCell>
        <mxCell id="Z5xYq3RRcm3EjHd7aSkA-11" style="rounded=0;orthogonalLoop=1;jettySize=auto;html=1;exitX=1;exitY=0.3333333333333333;exitDx=0;exitDy=0;exitPerimeter=0;entryX=0;entryY=0.5;entryDx=0;entryDy=0;" edge="1" parent="1" source="Z5xYq3RRcm3EjHd7aSkA-6" target="Z5xYq3RRcm3EjHd7aSkA-8">
          <mxGeometry relative="1" as="geometry" />
        </mxCell>
        <mxCell id="Z5xYq3RRcm3EjHd7aSkA-12" style="edgeStyle=none;rounded=0;orthogonalLoop=1;jettySize=auto;html=1;exitX=1;exitY=0.3333333333333333;exitDx=0;exitDy=0;exitPerimeter=0;entryX=0;entryY=0.5;entryDx=0;entryDy=0;" edge="1" parent="1" source="Z5xYq3RRcm3EjHd7aSkA-6" target="Z5xYq3RRcm3EjHd7aSkA-9">
          <mxGeometry relative="1" as="geometry" />
        </mxCell>
        <mxCell id="Z5xYq3RRcm3EjHd7aSkA-13" style="edgeStyle=none;rounded=0;orthogonalLoop=1;jettySize=auto;html=1;exitX=1;exitY=0.3333333333333333;exitDx=0;exitDy=0;exitPerimeter=0;entryX=0;entryY=0.5;entryDx=0;entryDy=0;" edge="1" parent="1" source="Z5xYq3RRcm3EjHd7aSkA-6" target="Z5xYq3RRcm3EjHd7aSkA-7">
          <mxGeometry relative="1" as="geometry" />
        </mxCell>
        <mxCell id="Z5xYq3RRcm3EjHd7aSkA-19" style="edgeStyle=none;rounded=0;orthogonalLoop=1;jettySize=auto;html=1;exitX=1;exitY=0.3333333333333333;exitDx=0;exitDy=0;exitPerimeter=0;entryX=0;entryY=0.5;entryDx=0;entryDy=0;" edge="1" parent="1" source="Z5xYq3RRcm3EjHd7aSkA-6" target="Z5xYq3RRcm3EjHd7aSkA-18">
          <mxGeometry relative="1" as="geometry" />
        </mxCell>
        <mxCell id="Z5xYq3RRcm3EjHd7aSkA-24" style="edgeStyle=none;rounded=0;orthogonalLoop=1;jettySize=auto;html=1;exitX=1;exitY=0.3333333333333333;exitDx=0;exitDy=0;exitPerimeter=0;entryX=0;entryY=0.5;entryDx=0;entryDy=0;" edge="1" parent="1" source="Z5xYq3RRcm3EjHd7aSkA-6" target="Z5xYq3RRcm3EjHd7aSkA-17">
          <mxGeometry relative="1" as="geometry" />
        </mxCell>
        <mxCell id="Z5xYq3RRcm3EjHd7aSkA-6" value="Operator" style="shape=umlActor;verticalLabelPosition=bottom;verticalAlign=top;html=1;outlineConnect=0;" vertex="1" parent="1">
          <mxGeometry x="50" y="340" width="30" height="60" as="geometry" />
        </mxCell>
        <mxCell id="Z5xYq3RRcm3EjHd7aSkA-25" style="edgeStyle=none;rounded=0;orthogonalLoop=1;jettySize=auto;html=1;exitX=0;exitY=0.3333333333333333;exitDx=0;exitDy=0;exitPerimeter=0;entryX=1;entryY=0.5;entryDx=0;entryDy=0;" edge="1" parent="1" source="Z5xYq3RRcm3EjHd7aSkA-10" target="Z5xYq3RRcm3EjHd7aSkA-23">
          <mxGeometry relative="1" as="geometry" />
        </mxCell>
        <mxCell id="Z5xYq3RRcm3EjHd7aSkA-50" style="edgeStyle=none;rounded=0;orthogonalLoop=1;jettySize=auto;html=1;exitX=0;exitY=0.3333333333333333;exitDx=0;exitDy=0;exitPerimeter=0;entryX=1;entryY=0.5;entryDx=0;entryDy=0;" edge="1" parent="1" source="Z5xYq3RRcm3EjHd7aSkA-10" target="Z5xYq3RRcm3EjHd7aSkA-34">
          <mxGeometry relative="1" as="geometry" />
        </mxCell>
        <mxCell id="Z5xYq3RRcm3EjHd7aSkA-10" value="Data Base" style="shape=umlActor;verticalLabelPosition=bottom;verticalAlign=top;html=1;outlineConnect=0;" vertex="1" parent="1">
          <mxGeometry x="680" y="260" width="30" height="60" as="geometry" />
        </mxCell>
      </root>
    </mxGraphModel>
  </diagram>
</mxfile>
